# xmcd
#
# Track frame offsets:
#	150
#	17432
#	31275
#	65651
#	88491
#	99907
#	114843
#	128495
#	140922
#	159530
#
# Disc length: 2514 seconds
#
# Revision: 1
# Processed by: cddbd v1.5.2PL0 Copyright (c) Steve Scherf et al.
# Submitted via: audiograbber 1.83.01
#
DISCID=7e09d00a
DTITLE=Various Artist - SOMEWHERE  IN  TIME  CD-1
DYEAR=1900
DGENRE=
TTITLE0=NOBODY'S FAULT BUT MINE
TTITLE1=MEAN OLD WORLD
TTITLE2=TIN PAN ALLEY (LIVE)
TTITLE3=SLABO DAY
TTITLE4=I'M BLUE (THE GONG GONG SONG)
TTITLE5=WON'T BE LONG
TTITLE6=BABY DON'T YOU KNOW
TTITLE7=I GET LIFTED
TTITLE8=I'M BROKE
TTITLE9=HIGHER GROUND
EXTD=
EXTT0=
EXTT1=
EXTT2=
EXTT3=
EXTT4=
EXTT5=
EXTT6=
EXTT7=
EXTT8=
EXTT9=
PLAYORDER=
